<svg width="193" height="187" viewBox="0 0 193 187" fill="none" xmlns="http://www.w3.org/2000/svg">
<path id="Vector" d="M19.1119 178.274C19.0313 179.783 18.815 181.281 18.4671 182.751L192.332 186.271V163.042L17.9977 164.919C18.4181 166.371 18.713 167.856 18.8772 169.358C19.0629 170.844 19.1711 172.32 19.2099 173.806C19.2558 175.296 19.2232 176.787 19.1119 178.274ZM0.869492 163.042V179.232L18.4671 182.751C18.0508 181.299 17.7569 179.814 17.5875 178.313C17.411 176.827 17.2936 175.35 17.2548 173.865C17.216 172.379 17.2548 170.883 17.362 169.397C17.4446 167.889 17.6579 166.39 17.9977 164.919L0.869492 163.042ZM162.69 0.562315L162.12 33.2565C161.925 44.0715 161.765 54.7815 161.662 65.4435C161.566 76.1055 161.463 86.7328 161.571 97.3326C161.681 107.933 161.884 118.567 162.065 129.254L162.68 128.554C156.478 129.482 150.27 130.366 144.057 131.205L134.734 132.446L125.4 133.608C119.179 134.386 112.959 135.17 106.726 135.866L88.0369 138.007L89.09 138.934C89.2553 130.032 89.3349 121.13 89.4297 112.229L89.6124 85.5247C89.6655 76.6229 89.7359 67.722 89.7226 58.8202C89.7522 49.9184 89.6726 41.0175 89.6369 32.1157L88.7349 33.4779L107.027 25.4536C113.129 22.7465 119.234 20.0782 125.37 17.2997L162.69 0.562315ZM162.852 0.317627L125.558 15.2559C119.258 17.7568 112.928 20.367 106.594 22.9404L87.5788 30.7535L86.6808 31.1229L86.6768 32.1157C86.641 41.0175 86.5615 49.9184 86.5921 58.8202C86.5778 67.722 86.6482 76.6229 86.7012 85.5247L86.8839 112.229C86.9788 121.13 87.0594 130.032 87.2237 138.934L87.2431 140.009L88.2777 139.859L106.895 137.16C113.098 136.245 119.313 135.415 125.527 134.58L134.847 133.322L144.179 132.144C150.401 131.377 156.629 130.647 162.862 129.954L163.466 129.888L163.477 129.254C163.658 118.473 163.862 107.637 163.972 96.7693C164.079 85.8992 163.976 75.0586 163.88 64.2507C163.777 53.4438 163.617 42.6848 163.422 32.03L162.852 0.317627Z" fill="#FFEDED"/>
</svg>
